<svg xmlns="http://www.w3.org/2000/svg" width="1200" height="360" viewBox="0 0 1200 360">
  <defs>
    <linearGradient id="bg" x1="0" y1="0" x2="1" y2="1">
      <stop offset="0%" stop-color="#0a0c10"/>
      <stop offset="100%" stop-color="#0c1218"/>
    </linearGradient>
    <linearGradient id="accent" x1="0" y1="0" x2="1" y2="0">
      <stop offset="0%" stop-color="#2dd4bf"/>
      <stop offset="100%" stop-color="#38bdf8"/>
    </linearGradient>
    <pattern id="grid" width="32" height="32" patternUnits="userSpaceOnUse">
      <path d="M32 0H0V32" fill="none" stroke="#1e293b" stroke-width="1" opacity="0.55"/>
    </pattern>
  </defs>

  <rect width="1200" height="360" rx="18" fill="url(#bg)"/>
  <rect width="1200" height="360" rx="18" fill="url(#grid)" opacity="0.7"/>
  <rect x="0" y="0" width="1200" height="3" fill="url(#accent)"/>

  <rect x="72" y="118" width="72" height="72" rx="14" fill="#111827" stroke="#2dd4bf" stroke-width="2"/>
  <path d="M90 166V142h12l14 18V142h10v24h-12l-14-18v18h-10z" fill="url(#accent)"/>

  <text x="172" y="158" fill="#f8fafc" font-family="Arial, Helvetica, sans-serif" font-size="64" font-weight="700">Longno</text>
  <text x="172" y="198" fill="#94a3b8" font-family="Arial, Helvetica, sans-serif" font-size="22">Systems  |  Game tooling  |  Desktop apps</text>

  <rect x="172" y="230" width="78" height="32" rx="16" fill="#0f172a" stroke="#334155"/>
  <text x="211" y="251" text-anchor="middle" fill="#cbd5e1" font-family="Arial, Helvetica, sans-serif" font-size="14">C++20</text>
  <rect x="262" y="230" width="92" height="32" rx="16" fill="#0f172a" stroke="#334155"/>
  <text x="308" y="251" text-anchor="middle" fill="#cbd5e1" font-family="Arial, Helvetica, sans-serif" font-size="14">IL2CPP</text>
  <rect x="366" y="230" width="118" height="32" rx="16" fill="#0f172a" stroke="#334155"/>
  <text x="425" y="251" text-anchor="middle" fill="#cbd5e1" font-family="Arial, Helvetica, sans-serif" font-size="14">Anti-Cheat</text>
  <rect x="496" y="230" width="108" height="32" rx="16" fill="#0f172a" stroke="#334155"/>
  <text x="550" y="251" text-anchor="middle" fill="#cbd5e1" font-family="Arial, Helvetica, sans-serif" font-size="14">Encryptic</text>

  <rect x="820" y="110" width="300" height="160" rx="16" fill="#0b1220" stroke="#1e293b" stroke-width="1.5"/>
  <rect x="820" y="110" width="300" height="3" fill="url(#accent)"/>
  <text x="844" y="152" fill="#64748b" font-family="Consolas, monospace" font-size="13">STATUS</text>
  <circle cx="1070" cy="146" r="5" fill="#2dd4bf"/>
  <text x="1082" y="151" fill="#2dd4bf" font-family="Consolas, monospace" font-size="12">online</text>
  <text x="844" y="188" fill="#e2e8f0" font-family="Consolas, monospace" font-size="15">building tools that</text>
  <text x="844" y="212" fill="#e2e8f0" font-family="Consolas, monospace" font-size="15">read the runtime,</text>
  <text x="844" y="236" fill="#e2e8f0" font-family="Consolas, monospace" font-size="15">not the brochure.</text>
  <text x="844" y="260" fill="#64748b" font-family="Consolas, monospace" font-size="12">longno.co.uk</text>
</svg>
