<svg xmlns="http://www.w3.org/2000/svg" width="880" height="200" viewBox="0 0 880 200">
  <rect width="880" height="200" rx="16" fill="#0b1220" stroke="#1e293b"/>
  <text x="28" y="40" fill="#2dd4bf" font-family="Arial, Helvetica, sans-serif" font-size="13" font-weight="700" letter-spacing="2">STACK</text>

  <text x="28" y="78" fill="#64748b" font-family="Consolas, monospace" font-size="14">Native</text>
  <rect x="140" y="58" width="70" height="28" rx="8" fill="#111827" stroke="#334155"/>
  <text x="175" y="77" text-anchor="middle" fill="#e2e8f0" font-family="Consolas, monospace" font-size="14">C++20</text>
  <rect x="220" y="58" width="70" height="28" rx="8" fill="#111827" stroke="#334155"/>
  <text x="255" y="77" text-anchor="middle" fill="#e2e8f0" font-family="Consolas, monospace" font-size="14">Win32</text>
  <rect x="300" y="58" width="88" height="28" rx="8" fill="#111827" stroke="#334155"/>
  <text x="344" y="77" text-anchor="middle" fill="#e2e8f0" font-family="Consolas, monospace" font-size="14">MinHook</text>
  <rect x="398" y="58" width="70" height="28" rx="8" fill="#111827" stroke="#334155"/>
  <text x="433" y="77" text-anchor="middle" fill="#e2e8f0" font-family="Consolas, monospace" font-size="14">ImGui</text>

  <text x="28" y="120" fill="#64748b" font-family="Consolas, monospace" font-size="14">Managed</text>
  <rect x="140" y="100" width="52" height="28" rx="8" fill="#111827" stroke="#334155"/>
  <text x="166" y="119" text-anchor="middle" fill="#e2e8f0" font-family="Consolas, monospace" font-size="14">C#</text>
  <rect x="202" y="100" width="64" height="28" rx="8" fill="#111827" stroke="#334155"/>
  <text x="234" y="119" text-anchor="middle" fill="#e2e8f0" font-family="Consolas, monospace" font-size="14">.NET</text>

  <text x="28" y="162" fill="#64748b" font-family="Consolas, monospace" font-size="14">Script</text>
  <rect x="140" y="142" width="100" height="28" rx="8" fill="#111827" stroke="#334155"/>
  <text x="190" y="161" text-anchor="middle" fill="#e2e8f0" font-family="Consolas, monospace" font-size="14">TypeScript</text>
  <rect x="250" y="142" width="78" height="28" rx="8" fill="#111827" stroke="#334155"/>
  <text x="289" y="161" text-anchor="middle" fill="#e2e8f0" font-family="Consolas, monospace" font-size="14">Python</text>
  <rect x="338" y="142" width="64" height="28" rx="8" fill="#111827" stroke="#334155"/>
  <text x="370" y="161" text-anchor="middle" fill="#e2e8f0" font-family="Consolas, monospace" font-size="14">Luau</text>

  <text x="520" y="78" fill="#64748b" font-family="Consolas, monospace" font-size="14">Runtime</text>
  <rect x="610" y="58" width="120" height="28" rx="8" fill="#111827" stroke="#334155"/>
  <text x="670" y="77" text-anchor="middle" fill="#e2e8f0" font-family="Consolas, monospace" font-size="14">Unity IL2CPP</text>
  <rect x="740" y="58" width="64" height="28" rx="8" fill="#111827" stroke="#334155"/>
  <text x="772" y="77" text-anchor="middle" fill="#e2e8f0" font-family="Consolas, monospace" font-size="14">Mono</text>
  <rect x="610" y="100" width="92" height="28" rx="8" fill="#111827" stroke="#334155"/>
  <text x="656" y="119" text-anchor="middle" fill="#e2e8f0" font-family="Consolas, monospace" font-size="14">Electron</text>
</svg>
